<?xml version="1.0" encoding="utf-8"?>
<!-- Designed by Vexels.com - 2019 All Rights Reserved - https://vexels.com/terms-and-conditions/  -->
<svg version="1.1" id="Layer_1" xmlns="http://www.w3.org/2000/svg" xmlns:xlink="http://www.w3.org/1999/xlink" x="0px" y="0px"
	 viewBox="0 0 1200 1200" enable-background="new 0 0 1200 1200" xml:space="preserve">
<g>
	<path fill="#A3EAE8" d="M945.686,843.463c-3.974,2.051-5.315,6.122-7.118,9.701c-7.807,15.497-19.347,28.012-32.181,39.241
		c-11.732,10.265-24.487,19.351-36.452,29.362c-13.821,11.565-29.941,18.711-46.541,24.838
		c-15.287,5.642-30.77,10.805-46.348,15.589c-13.593,4.174-27.556,6.791-41.673,8.862c-24.098,3.535-48.294,6.691-71.962,12.688
		c-13.796,3.496-27.899,5.483-41.747,8.402c-13.304,2.804-27.115,1.771-40.082,6.475c-3.686,1.337-8.09,0.711-12.167,0.947
		c-4.08,0.235-8.45-0.452-12.196,0.78c-16.701,5.493-33.823,2.235-50.729,3.124c-25.87-5.294-52.386-5.581-78.327-11.264
		c-26.701-5.849-49.524-18.127-70.804-34.285c-8.61-6.537-16.935-13.167-23.326-22.401c-6.523-9.425-15.619-16.87-22.561-26.269
		c-5.717-7.74-11.235-15.437-14.886-24.234c-8.329-20.065-16.053-40.381-24.357-60.456c-2.446-5.914-2.786-11.853-2.624-18.002
		c7.475,0.287,14.951,0.841,22.423,0.804c14.545-0.072,23.42-9.762,31.731-19.804c5.8-7.008,3.882-15.74,2.799-23.609
		c-0.703-5.109-4.102-9.921-6.629-14.689c-4.45-8.395-9.627-16.433-13.653-25.017c-7.418-15.82-4.182-30.847,9.141-42.261
		c8.579-7.35,19.002-10.147,30.292-9.384c1.321,0.089,2.831,0.348,3.877,1.072c10.255,7.094,19.054,15.381,22.236,28.1
		c1.818,7.27-2.536,12.061-10.009,11.141c-4.474-0.55-7.52-2.88-9.39-6.837c-1.134-2.4-1.855-5.026-3.224-7.269
		c-0.544-0.893-2.487-1.635-3.522-1.374c-1.813,0.458-4.433,1.362-4.949,2.741c-4.658,12.442,2.518,24.232,15.221,25.162
		c4.734,0.347,9.562,0.377,14.272-0.143c6.782-0.747,11.69-5.295,13.155-11.342c2.42-9.987,2.54-20.328-3.253-29.623
		c-5.108-8.199-11.794-14.981-20.047-19.996c-4.665-2.835-9.801-4.199-15.485-4.423c-12.71-0.502-24.473,2.954-34.97,9.279
		c-12.239,7.374-19.185,18.325-19.571,33.602c-0.413,16.303,3.318,30.811,12.858,43.97c3.968,5.473,7.488,11.082,9.394,17.864
		c3.124,11.12,0.304,20.529-9.286,26.084c-4.744,2.747-9.7,4.652-15.446,4.531c-6.063-0.128-12.288-1.045-18.143,1.595
		c-0.836-0.032-1.393-0.443-1.674-1.231c-2.104-9.917-3.854-19.925-6.395-29.729c-3.734-14.401-9.435-28.372-8.69-43.655
		c-4.335-10.384-3.23-21.372-3.606-32.201c-0.117-3.393,0.121-6.943-0.786-10.142c-5.512-19.443-2.016-39.214-2.497-58.834
		c4.893-12.436,2.991-25.506,3.582-38.343c-0.667-16.987,6.204-31.773,15.15-45.247c8.901-13.406,19.678-25.566,29.663-38.248
		c0.83-1.054,1.801-2.033,2.845-2.876c14.124-11.414,28.027-23.122,42.517-34.053c7.481-5.644,15.928-10.045,24.102-14.721
		c5.443-3.114,9.773-7.114,12.563-12.741c10.784,1.24,21.241,3.893,31.463,7.47c11.007,3.852,22.252,5.203,33.944,5.031
		c27.19-0.398,54.391-0.019,81.585-0.215c12.825-0.092,25.813,1.474,38.311-3.299c2.416-0.923,5.381-0.445,8.095-0.541
		c14.18-0.5,28.544,1.234,42.356-3.758c1.829-0.661,4.044-0.281,6.082-0.333c14.87-0.38,29.585-0.562,44.449-3.504
		c12.412-2.457,25.659-0.775,38.136-4.631c13.766,1.775,26.677-3.908,40.218-4.692c7.945-0.46,16.086-3.279,20.153-11.717
		c5.402,0.148,10.718,0.04,16.09,1.676c18.704,5.695,38.068,9.219,55.998,17.488c2.268,1.046,5.319,0.396,8.007,0.532
		c1.505,2.963,2.491,6.374,4.599,8.816c14.97,17.337,33.257,30.503,53.218,41.478c0.568,0.312,1.284,0.354,1.931,0.522
		c-1.372,5.008-0.261,9.236,3.355,13.11c8.89,9.525,14.974,20.888,21.292,32.196c12.707,22.745,19.991,47.484,28.356,71.908
		c6.891,20.118,8.961,41.041,11.195,61.786c1.38,12.826,4.452,25.292,5.765,38.062c0.103,1.005,1.813,1.846,2.776,2.763
		c-6.158,13.008-9.609,27.004-11.49,40.989c-1.919,14.259-4.714,28.231-9.655,41.513c-5.576,14.987-8.196,30.066-7.314,45.895
		C945.308,836.659,945.497,840.061,945.686,843.463z M712.6,880.899c-12.91,0.852-24.721-0.239-35.814-7.135
		c-6.517-4.051-12.12-8.864-17.003-14.45c-11.211-12.825-10.779-18.616,1.087-31.41c0.917-0.988,1.951-2.051,3.151-2.563
		c8.243-3.514,11.283-11.158,15.41-18.233c5.612-9.62,3.757-18.352-1.711-26.829c-4.488-6.956-10.47-12.349-18.328-15.67
		c-5.314-2.246-10.263-2.324-15.811-0.897c-20.582,5.294-36.783,17.053-50.234,33.052c-4.456,5.298-7.631,11.208-8.081,18.324
		c-0.323,5.105,2.615,10.264,6.683,11.466c3.725,1.1,8.14-3.266,9.034-8.955c0.105-0.67,0.232-1.369,0.152-2.031
		c-1.017-8.416,3.199-14.384,9.304-19.26c4.229-3.377,8.991-6.09,13.18-9.511c9.677-7.905,20.824-9.337,32.692-8.066
		c5.691,0.609,9.713,4.862,10.457,10.762c1.166,9.253-0.057,17.535-7.998,23.853c-3.707,2.949-6.704,6.773-10.21,9.997
		c-4.136,3.804-6.841,8.54-8.64,13.671c-1.086,3.092-1.874,6.806-1.203,9.895c1.743,8.033,4.891,16.277,10.815,21.59
		c11.062,9.919,22.648,20.223,37.475,23.788c9.719,2.337,19.593,6.898,29.932,4.58c12.521-2.807,25.298-5.031,36.969-10.743
		c3.608-1.765,7.446-3.795,10.073-6.702c12.238-13.541,15.549-29.758,12.826-47.422c-0.292-1.89-1.545-3.836-2.843-5.329
		c-4.464-5.134-9.336-9.247-16.162-11.784c-11.977-4.452-24.038-3.762-36.228-3.236c-1.889,0.082-3.918,1.157-5.553,2.26
		c-12.562,8.477-15.432,25.741-6.344,37.518c5.861,7.595,15.559,9.401,23.252,4.317c2.51-1.659,3.418-3.959,2.931-6.948
		c-0.387-2.371-2.015-3.548-3.991-4.057c-3.258-0.84-6.741-0.958-9.868-2.099c-1.688-0.616-3.244-2.504-4.142-4.198
		c-2.361-4.451,2.752-13.656,7.767-14.423c11.82-1.809,23.009,0.607,33.621,5.611c2.178,1.027,4.462,3.736,4.986,6.056
		c3.459,15.328-3.546,31.219-16.825,38.007C736.031,879.512,724.638,882.278,712.6,880.899z M476.004,651.59
		c-23.981-0.027-30.173,0.948-43.766,7.258c-3.017,1.401-5.763,3.504-8.363,5.617c-0.824,0.669-1.001,2.41-1.066,3.681
		c-0.131,2.59,1.948,3.493,3.908,3.835c5.503,0.962,10.707-0.087,15.895-2.269c11.445-4.814,23.464-5.733,35.851-5.972
		c13.158-0.253,24.099,4.682,33.805,12.123c7.983,6.12,15.628,13.072,20.473,22.457c3.416,6.615,7.492,12.905,11.522,19.181
		c5.239,8.159,11.76,14.114,21.605,17.397c10.142,3.382,20.11,2.477,30.218,2.876c10.134,0.4,18.282-3.832,25.874-10.186
		c9.226-7.722,14.952-17.749,18.802-28.666c5.505-15.607,7.733-31.385-0.552-47.212c-3.91-7.468-8.767-13.855-15.502-18.589
		c-6.218-4.371-13.325-6.971-21.166-5.591c-9.108,1.602-16.049,6.748-22.165,13.531c-4.611,5.113-4.693,11.058-4.675,17.207
		c0.018,6.128,0.049,12.256,0.164,18.382c0.114,6.058,3.587,10.524,8.334,13.259c4.61,2.656,9.945,4.363,15.174,5.562
		c7.085,1.624,14.226-6.473,12.805-14.051c-0.388-2.068-1.606-4.013-4.011-3.68c-2.623,0.363-5.115,1.631-7.738,2.045
		c-5.96,0.94-11.408-2.793-11.872-8.357c-0.394-4.723-0.613-9.562-0.041-14.243c1.193-9.772,6.453-13.83,16.615-13.824
		c4.858,0.003,9.493,0.364,13.299,3.943c5.646,5.307,9.491,11.71,10.462,19.349c1.945,15.298-1.255,29.775-8.558,43.263
		c-2.969,5.484-7.246,9.786-13.692,11.432c-3.278,0.837-6.355,2.477-9.642,3.258c-18.853,4.481-35.558-2.54-45.429-19.044
		c-1.741-2.912-2.832-6.228-4.677-9.061c-7.771-11.927-15.727-23.174-28.306-31.396C505.309,655.769,491.028,649.656,476.004,651.59
		z M330.695,610.939c0-0.109,0-0.219,0-0.328c-7.501,0-15.003-0.046-22.504,0.01c-14.056,0.104-13.912,0.352-26.397,8.394
		c-16.041,10.332-22.899,24.6-19.753,43.477c0.321,1.928,1.261,4.275,3.828,3.884c1.819-0.278,3.79-1.196,5.163-2.422
		c2.765-2.469,3.015-6.074,2.779-9.465c-0.473-6.761,2.554-11.796,7.203-16.193c2.971-2.81,5.665-6.004,8.961-8.357
		c4.976-3.553,10.302-7.043,16.737-6.811c11.494,0.414,23.043-1.348,34.462,2.475c7.78,2.604,15.778,1.51,24.003-0.818
		c17.003-4.813,30.663-13.978,42.542-26.811c7.958-8.598,9.718-19.354,11.831-29.813c1.487-7.36-2.642-14.394-5.69-21.202
		c-2.31-5.158-5.757-9.414-10.505-12.223c-9.448-5.589-19.545-9.239-30.732-9.881c-10.283-0.59-18.32,4.712-26.617,9.218
		c-7.591,4.123-11.613,11.422-14.039,19.391c-1.433,4.708-0.738,9.552,2.79,13.43c3.207,3.525,6.566,6.915,9.926,10.297
		c3.552,3.574,7.9,5.162,12.938,5.043c3.407-0.081,6.818,0.05,10.227,0.016c7.84-0.08,12.566-4.777,15.575-11.291
		c1.077-2.33,1.132-5.654-1.637-7.346c-1.57-0.959-3.853-1.454-5.644-1.151c-1.859,0.314-3.823,1.531-5.202,2.897
		c-6.04,5.98-12.102,4.8-18.466,0.651c-4.51-2.941-6.658-9.548-3.649-14.188c2.161-3.332,4.941-6.769,8.283-8.735
		c10.455-6.152,22.263-6.545,32.89-0.612c9.245,5.161,16.444,12.304,15.045,24.429c-0.311,2.697,0.185,5.511-0.31,8.156
		c-0.486,2.596-1.113,5.647-2.798,7.453c-6.966,7.461-13.958,14.995-21.723,21.581c-5.743,4.871-12.956,7.181-20.878,6.923
		C349.797,610.701,340.242,610.939,330.695,610.939z M559.307,868.5c2.045,0,4.094-0.087,6.134,0.014
		c18.742,0.926,31.453,14.002,31.893,32.854c0.096,4.086,0.12,8.189-0.124,12.266c-0.424,7.089-3.403,13.1-8.405,18.088
		c-3.132,3.123-9.034,2.661-12.964-0.903c-2.666-2.417-2.988-5.432-0.746-9.084c1.414-2.304,3.589-4.265,4.497-6.722
		c1.026-2.776-0.604-5.461-2.987-6.934c-1.559-0.964-4.213-1.802-5.594-1.117c-5.57,2.759-10.177,6.98-13.075,12.483
		c-1.134,2.154-1.398,5.513-0.582,7.796c1.816,5.085,3.96,10.244,8.292,13.881c2.059,1.729,4.235,3.946,6.68,4.489
		c16.919,3.75,34.527-2.613,37.187-24.196c0.581-4.708-0.123-9.893,1.633-14.075c4.335-10.325,0.009-19.264-5-26.808
		c-9.711-14.628-23.845-24.126-41.404-27.525c-3.93-0.761-8.373-1.059-12.157-0.024c-24.589,6.719-42.947,20.766-48.899,46.6
		c-1.673,7.26-4.798,12.451-9.651,17.305c-2.891,2.892-5.878,5.693-8.699,8.652c-5.773,6.054-12.487,10.807-20.726,12.343
		c-11.821,2.204-23.487,7.564-35.922,2.144c-2.934-1.279-6.586-1.046-9.922-1.226c-2.375-0.128-5.409,3.057-4.938,5.421
		c0.365,1.832,1.331,4.379,2.753,5.03c8.747,4.006,17.956,5.301,27.687,5.528c17.234,0.402,32.393-5.651,45.794-14.953
		c12.86-8.927,23.852-20.444,26.803-37.16c0.347-1.967,1.483-3.787,2.175-5.703C525.546,878.957,540.301,868.495,559.307,868.5z
		 M908.466,705.229c0-4.232,0.085-6.957-0.013-9.675c-0.784-21.565-11.613-37.258-29.474-48.113
		c-15.32-9.311-19.404-8.724-36.176-1.874c-12.153,4.964-17.566,17.751-16.151,27.816c0.278,1.979,0.643,4.207,1.749,5.766
		c6.075,8.559,13.804,15.04,24.347,17.271c9.098,1.925,15.814-0.922,20.794-9.11c1.263-2.077,1.533-5.251,1.133-7.741
		c-0.822-5.123-6.619-7.191-10.714-3.922c-2.079,1.659-3.483,4-6.461,4.57c-6.747,1.29-15.679-4.027-17.524-10.858
		c-0.317-1.175-0.009-2.789,0.584-3.892c2.334-4.343,5.805-7.793,10.566-9.055c13.343-3.536,28.178,2.56,35.692,13.915
		c9.138,13.81,11.002,29.07,8.843,44.931c-2.02,14.845-11.627,22.539-26.383,22.519c-12.365-0.017-23.839-4.549-35.764-6.771
		c-12.258-2.284-33.202,4.163-40.479,14.014c-3.151,4.265-6.275,9.428-6.893,14.49c-1.068,8.748-2.078,17.416-4.212,25.997
		c-0.593,2.385,0.336,5.405,1.296,7.848c0.987,2.511,3.038,4.416,6.095,4.631c3.211,0.225,5.209-1.828,6.357-4.216
		c1.131-2.356,1.696-5.15,1.831-7.786c0.345-6.791,0.019-13.623,0.51-20.399c0.607-8.385,10.302-18.856,18.366-19.419
		c9.462-0.66,19.273-2.071,28.359,1.079c11.367,3.941,22.875,3.067,34.319,2.627c10.041-0.386,17.63-5.354,22.595-14.85
		C906.876,725.043,909.743,714.928,908.466,705.229z M823.248,508.435c-2.579,0-5.325-0.226-8.016,0.064
		c-2.661,0.287-5.729,0.403-7.81,1.8c-6.812,4.572-12.969,10.088-16.665,17.558c-1.83,3.699-1.792,8.198,0.542,11.792
		c6.165,9.493,14.556,16.094,26.032,17.942c8.051,1.296,12.623-1.565,15.716-9.473c1.104-2.818,0.335-5.228-1.57-7.467
		c-1.968-2.313-4.649-3.386-7.239-2.351c-3.801,1.519-7.387,3.773-11.632,2.728c-1.849-0.455-4.048-1.429-5.089-2.883
		c-3.859-5.388-0.058-15.32,6.276-16.627c11.262-2.323,21.769-0.54,30.597,7.175c5.111,4.466,9.711,9.528,14.44,14.419
		c2.941,3.041,4.022,6.788,4.579,11.026c1.604,12.221-2.784,22.707-8.668,32.842c-5.113,8.807-13.02,14.523-22.873,15.263
		c-10.202,0.766-19.637,5.601-30.078,4.663c-2.462-0.221-5.42,0.95-7.596,2.345c-18.492,11.855-27.262,37.045-19.381,57.374
		c3.397,8.766,7.074,17.771,15.237,23.73c3.184,2.324,8.301,0.741,10.097-3.348c1.271-2.894,0.372-5.399-1.624-7.391
		c-9.103-9.085-14.186-19.443-13.226-32.844c1.096-15.297,11.616-27.086,26.915-27.685c8.209-0.322,16.053-1.277,23.942-3.886
		c23.344-7.721,38.83-27.379,42.848-54.394c0.195-1.313,0.094-2.745-0.204-4.045c-3.468-15.101-10.72-28.125-23.49-37.018
		C845.904,513.193,835.891,506.889,823.248,508.435z M464.386,709.243c-4.084,0-8.27-0.582-12.231,0.114
		c-10.052,1.766-17.942,6.964-20.898,17.175c-3.07,10.603-3.395,21.406,0.664,31.985c2.296,5.983,5.983,10.68,12.221,12.912
		c6.377,2.282,12.65,5.034,19.202,6.603c8.446,2.023,17.736-3.494,21.274-11.955c0.734-1.754,1.259-4.133,0.673-5.799
		c-1.566-4.452-3.308-8.912-7.249-12.079c-2.39-1.92-7.029-1.178-9.012,1.656c-1.682,2.402-1.94,4.846-1.239,7.672
		c0.498,2.004-0.015,4.371-2.464,4.556c-8.673,0.655-15.693,1.132-20.218-9.465c-0.801-1.876-1.946-3.63-2.552-5.56
		c-2.254-7.182,2.301-19.907,8.417-23.67c1.138-0.7,2.447-1.409,3.734-1.534c9.517-0.922,19.02-1.753,27.869,3.344
		c3.531,2.034,7.322,3.613,10.966,5.454c20.16,10.187,30.077,26.676,30.186,49.173c0.02,4.088-0.025,8.176-0.011,12.265
		c0.04,11.897-3.737,22.373-10.204,32.421c-4.5,6.991-9.918,12.91-15.617,18.74c-7.136,7.301-14.398,14.487-21.304,21.999
		c-0.943,1.025-0.877,4.228,0.036,5.374c0.996,1.249,3.993,2.269,5.296,1.652c4.224-2,8.068-4.803,12.066-7.284
		c15.534-9.639,25.248-24.539,34.397-39.566c6.748-11.084,7.749-24.446,11.068-36.851c0.841-3.142,0.315-6.823-0.272-10.134
		c-0.944-5.322-2.061-10.68-3.814-15.779c-4.47-12.997-10.581-25.871-20.815-34.6C500.55,716.115,484.033,707.59,464.386,709.243z
		 M395.772,810.961c9.313,0.53,15.456-0.443,21.303,2.357c12.123,5.806,21.206,14.578,26.671,26.866
		c3.211,7.221,2.566,14.391-0.569,21.677c-2.984,6.934-7.761,10.901-15.21,11.869c-1.301,0.169-2.523,0.987-3.77,1.532
		c-4.901,2.139-9.23,0.572-13.539-1.875c-5.434-3.086-6.852-7.136-5.244-15.878c0.658-3.579,2.945-4.811,9.723-5.255
		c3.36-0.22,6.725-0.408,10.078-0.709c1.435-0.129,3.264-3.554,2.688-4.809c-3.042-6.621-14.163-11.89-20.515-9.719
		c-14.792,5.055-21.218,17.427-16.611,31.97c0.82,2.588,1.306,5.343,2.522,7.726c1.195,2.341,2.688,5.008,4.801,6.33
		c21.762,13.613,46.348,4.509,58.897-17.38c0.642-1.12,0.805-2.593,0.921-3.925c1.669-19.111-1.992-35.761-17.107-49.792
		c-10.213-9.48-22.215-12.293-34.469-16.004c-9.252-2.802-17.578,0.788-25.762,3.608c-10.937,3.767-21.224,9.052-28.968,18.26
		c-13.505,16.059-24.633,41.246-27.31,62.447c-0.338,2.68,2.865,6.951,5.69,7.586c2.706,0.608,7.199-2.124,7.957-5.098
		c0.663-2.601,0.977-5.293,1.42-7.949c3.205-19.229,10.711-36.077,25.02-49.98C374.296,815.188,385.017,809.486,395.772,810.961z
		 M650.134,598.454c3.683,0,5.74,0.14,7.772-0.023c12.365-0.995,22.661,3.17,31.242,12.061c6.154,6.376,12.618,12.454,18.749,18.852
		c2.806,2.929,5.725,6.003,7.585,9.542c6.335,12.055,12.204,24.354,18.283,36.544c4.203,8.427,2.884,17.278,1.848,26.038
		c-0.218,1.836-1.646,3.812-3.048,5.179c-12.816,12.507-19.637,11.675-31.576,1.627c-4.319-3.635-6.435-8.705-8.353-13.84
		c-0.837-2.24,1.65-5.152,4.45-5.515c3.533-0.458,6.791-0.049,9.505,2.438c1.494,1.369,2.627,3.431,4.354,4.16
		c1.677,0.709,4.036,0.541,5.858-0.018c2.189-0.671,3.437-4.851,2.536-7.09c-2.736-6.797-7.324-11.527-14.938-12.083
		c-4.737-0.346-9.546-0.182-14.292,0.172c-5.955,0.445-10.094,4.731-10.912,10.333c-1.357,9.305,1.79,16.773,6.89,24.695
		c7.03,10.918,17.658,14.327,28.668,17.613c3.048,0.91,6.963,0.455,10.059-0.606c11.131-3.816,26.519-13.615,24.136-31.128
		c-0.547-4.019-0.222-8.174-0.112-12.261c0.247-9.156-3.305-17.316-7.098-25.23c-3.811-7.951-8.695-15.381-12.886-23.16
		c-10.26-19.038-24.875-33.857-43.271-45.037c-5.901-3.586-12.162-5.851-19.302-5.662c-10.902,0.288-21.815,0.159-32.724,0.158
		c-4.863,0-9.401,0.697-13.441,3.855c-3.203,2.504-6.938,4.324-10.168,6.799c-1.547,1.186-2.568,3.123-3.652,4.832
		c-1.091,1.719-0.004,6.574,1.847,7.324c1.768,0.717,3.836,1,5.753,0.936c1.237-0.042,2.679-0.799,3.626-1.671
		C627.315,599.27,639.1,597.347,650.134,598.454z M585.082,555.72c0-3.868,0.179-6.609-0.029-9.32
		c-1.209-15.696-6.834-28.406-21.241-37.081c-12.438-7.49-24.529-6.173-37.089-2.223c-6.171,1.941-9.872,6.621-12.713,12.473
		c-4.152,8.55-2.982,17.246-1.974,26.021c0.142,1.237,1.033,2.605,1.972,3.497c6.168,5.857,13.185,9.948,22.021,7.784
		c2.312-0.566,4.266-3.043,6.111-4.913c1.235-1.252,0.324-4.834-1.187-5.263c-2.572-0.729-5.232-1.142-7.804-1.867
		c-8.241-2.322-12.059-9.906-8.353-17.311c3.209-6.412,8.032-10.935,15.907-10.834c12.7,0.164,22.484,5.529,28.066,16.956
		c6.276,12.849,5.152,26.453,1.809,39.816c-1.134,4.533-3.821,8.715-6.04,12.931c-5.187,9.852-13.869,15.273-24.527,16.091
		c-13.407,1.029-27.487,2.996-37.566-9.913c-1.536-1.967-4.657-2.705-7.058-3.985c-5.769-3.073-12.14-3.503-17.824-1.141
		c-8.748,3.636-17.001,8.478-25.407,12.914c-1.71,0.903-2.487,5.864-1.194,7.508c1.822,2.317,4.414,3.298,7.225,2.345
		c3.205-1.087,6.227-2.701,9.387-3.935c4.417-1.725,9.085-2.924,13.286-5.056c5.066-2.57,8.895-1.636,12.887,2.103
		c15.065,14.109,32.081,20.103,52.285,11.894c0.607-0.247,1.381-0.056,2.02-0.254c14.22-4.401,25.584-12.124,31.49-26.499
		C584.019,577.563,586.132,566.346,585.082,555.72z M693.807,553.604c4.537,0,7.979,0.353,11.327-0.056
		c23.769-2.903,36.44-15.977,39.464-39.149c1.659-12.712-2.179-24.089-8.41-34.91c-5.29-9.185-13.946-14.499-22.388-20.255
		c-6.916-4.716-13.882-4.87-21.274-2.297c-7.253,2.524-13.261,7.082-17.822,13.122c-12.495,16.547-10.76,28.799,11.254,37.421
		c0.618,0.242,1.318,0.371,1.983,0.384c1.347,0.027,2.905,0.364,4.008-0.178c4.222-2.073,8.52-4.125,12.368-6.793
		c3.851-2.67,3.928-8.568,0.8-12.72c-2.59-3.438-5.26-3.393-10.107,0.363c-1.537,1.19-3.235,2.276-5.023,3.009
		c-2.138,0.876-5.787-1.455-6.294-3.734c-0.147-0.664-0.378-1.319-0.437-1.99c-0.449-5.09,1.009-9.36,5.338-12.422
		c7.715-5.456,13.282-5.921,20.506-1.158c11.14,7.345,19.055,17.037,22.191,30.388c3.242,13.798-2.603,27.92-15.33,34.451
		c-12.126,6.222-24.879,5.668-37.486,1.627c-7.078-2.269-13.814-5.582-20.828-8.077c-11.991-4.264-22.543,0.143-32.548,6.269
		c-1.162,0.711-1.4,3.553-1.334,5.38c0.032,0.893,1.628,2.24,2.724,2.495c4.704,1.095,9.597,1.309,13.972-0.883
		c6.134-3.073,11.495-1.948,17.394,0.932C669.489,550.501,681.518,555.205,693.807,553.604z M802.044,889.607
		c0,6.809-0.243,13.631,0.123,20.421c0.137,2.542,1.375,5.191,2.685,7.46c1.45,2.513,4.039,3.598,6.962,2.658
		c2.802-0.9,4.428-3.168,5.128-5.877c0.313-1.206-0.165-2.675-0.485-3.976c-5.612-22.835-2.452-44.381,9.202-64.793
		c6.263-10.97,14.742-19.411,26.474-24.337c4.586-1.926,9.223-1.745,13.92-0.063c10.076,3.609,17.235,10.858,23.292,19.164
		c5.819,7.979,2.082,22.043-6.752,26.633c-5.075,2.637-10.581,2.584-15.77,0.481c-1.452-0.589-2.92-3.151-2.93-4.817
		c-0.016-2.59,1.34-5.161,1.882-7.788c0.864-4.182-1.878-8.863-5.401-9.513c-3.189-0.588-8.419,3.258-8.862,6.956
		c-0.484,4.032-0.795,8.147-0.56,12.19c0.556,9.597,12.683,20.803,22.488,19.879c6.628-0.625,13.311-2.663,19.02-6.571
		c5.287-3.618,8.633-9.01,10.199-14.914c2.847-10.732,3.048-21.641-2.943-31.594c-7.343-12.2-17.964-20.457-32.03-23.185
		c-12.484-2.421-24.817-0.32-34.76,7.634c-12.367,9.893-20.832,22.977-26.89,37.784C801.199,865.261,801.92,877.41,802.044,889.607z
		 M366.863,495.815c23.505,0.068,23.788-0.275,40.807,13.774c7.595,6.269,16.092,9.57,25.051,12.901
		c23.42,8.706,42.476-7.075,48.798-24.555c1.963-5.429,1.526-10.815-2.531-15.279c-3.653-4.02-7.189-8.338-11.532-11.482
		c-4.302-3.115-9.359-5.514-14.433-7.143c-4.706-1.511-9.516-0.252-12.863,3.917c-3.313,4.127-3.39,10.197-0.447,15.27
		c1.76,3.033,5.844,4.131,8.619,2.154c1.076-0.766,1.703-2.165,2.781-2.927c4.434-3.135,9.495-2.434,12.407,1.576
		c3.535,4.87,3.936,14.74,0.784,19.293c-4.036,5.83-14.777,9.741-21.622,7.594c-12.991-4.075-25.249-9.219-35.868-18.411
		c-9.98-8.639-22.478-12.849-35.753-12.153c-8.005,0.42-15.947,2.796-23.793,4.78c-1.362,0.344-2.491,3.003-3.044,4.802
		c-0.721,2.348,2.02,5.837,4.309,5.865C354.641,495.864,360.752,495.815,366.863,495.815z"/>
	<path fill="#50BAC5" d="M945.686,843.463c-0.189-3.402-0.378-6.804-0.568-10.205c-0.882-15.83,1.738-30.908,7.314-45.895
		c4.942-13.282,7.737-27.253,9.655-41.513c1.881-13.985,5.333-27.981,11.49-40.989c9.94-10.244,19.832-20.533,29.836-30.714
		c6.208-6.318,11.976-12.888,16.803-20.416c8.068-12.582,16.385-25.047,25.319-37.022c15.689-21.03,26.144-44.535,33.077-69.544
		c3.789-13.669,6.94-27.768,5.103-42.247c-1.453-11.442-2.703-22.939-4.865-34.255c-2.912-15.233-10.08-28.532-23.233-37.093
		c-22.012-14.326-45.702-20.66-71.682-11.315c-8.307,2.988-16.646,5.903-25.061,8.568c-20.499,6.49-35.526,19.509-45.805,38.161
		c-3.302,5.991-6.49,11.965-12.231,16.051c-0.647-0.168-1.364-0.21-1.931-0.522c-19.961-10.975-38.248-24.142-53.218-41.478
		c-2.109-2.442-3.094-5.853-4.599-8.816c-0.165-11.118,5.46-19.913,13.026-26.807c14.525-13.235,28.635-27.103,47.466-34.804
		c10.091-4.127,20.032-8.444,30.656-10.986c2.641-0.632,5.396-0.942,7.922-1.878c29.796-11.043,60.047-8.947,90.499-3.529
		c23.189,4.126,44.086,13.433,63.19,26.998c2.769,1.966,5.475,4.09,7.903,6.456c21.32,20.764,37.845,44.525,45.141,73.83
		c1.466,5.889,2.367,12.006,2.713,18.065c0.505,8.829,0.187,17.701,0.371,26.552c0.357,17.214-3.146,33.875-8.283,50.073
		c-6.168,19.451-14.106,38.243-24.234,56.07c-7.73,13.607-15.377,27.289-22.35,41.291c-7.071,14.198-16.655,26.489-27.14,38.116
		c-18.708,20.745-38.351,40.544-60.183,58.096c-7.408,5.956-13.879,12.817-19.582,20.641c-8.868,12.165-12.504,25.285-11.775,40.146
		c0.738,15.063,10.031,27.19,24.797,30.75c3.939,0.95,8.14,0.767,12.128,1.569c5.98,1.203,12.015,2.414,17.773,4.367
		c5.888,1.998,9.101,9.196,7.456,15.08c-2.409,8.619-7.611,14.467-16.839,15.354c-20.62,1.981-39.119-3.526-54.984-16.937
		C959.495,856.594,952.696,849.904,945.686,843.463z"/>
	<path fill="#50BAC5" d="M249.364,582.601c-0.59,12.838,1.311,25.908-3.582,38.343c0.481,19.619-3.015,39.391,2.497,58.834
		c0.907,3.199,0.669,6.748,0.786,10.142c0.377,10.829-0.728,21.816,3.606,32.201c-0.745,15.282,4.956,29.254,8.69,43.655
		c2.542,9.803,4.292,19.812,6.395,29.729c-0.531,1.251-1.019,2.523-1.6,3.75c-1.392,2.94-4.272,4.206-6.627,2.606
		c-29.409-19.966-56.915-42.071-76.607-72.284c-11.136-17.087-21.773-34.504-32.437-51.893c-5.687-9.274-10.649-19-16.471-28.185
		c-15.733-24.822-25.687-52.512-39.282-78.402c-9.79-18.643-19.867-37.233-26.898-57.202c-5.862-16.651-11.66-33.325-17.396-50.02
		c-1.305-3.797,0.395-8.763,3.83-10.779c3.495-2.051,7.098-4.279,10.953-5.294c16.968-4.467,30.908-13.786,43.307-25.827
		c1.939-1.883,4.138-3.518,6.326-5.118c2.581-1.887,6.667-1.084,9.35,1.273c3.718,3.265,6.027,7.382,7.539,11.932
		c3.462,10.418,9.497,19.493,14.492,29.134c11.947,23.061,27.043,44.065,41.514,65.452c6.817,10.076,15.191,19.216,23.632,28.041
		c7.98,8.342,16.947,15.743,25.528,23.504C240.475,579.418,244.281,582.278,249.364,582.601z M111.883,456.242
		c-4.105,0.896-5.606,3.487-5.463,6.134c0.177,3.265,0.961,6.815,2.564,9.626c5.723,10.034,11.599,20.009,17.983,29.632
		c10.524,15.862,21.892,31.172,32.167,47.188c13.758,21.446,31.726,38.975,50.172,56.143c1.475,1.372,3.281,2.402,4.986,3.51
		c2.494,1.622,7.048,0.36,8.915-2.539c1.582-2.456,1.83-5.251,0.361-7.702c-1-1.667-2.8-2.881-4.325-4.203
		c-20.673-17.938-39.271-37.609-52.641-61.805c-2.948-5.335-6.683-10.271-10.351-15.169c-11.016-14.711-21.445-29.793-30.55-45.785
		c-2.678-4.703-5.823-9.188-9.207-13.411C115.486,456.604,112.939,456.58,111.883,456.242z"/>
	<path fill="#50BAC5" d="M389.906,401.064c-8.421-12.23-7.085-25.432-3.863-38.821c6.818-2.962,13.426-7.615,20.502-8.491
		c10.635-1.316,21.88-1.409,32.335,0.659c8.764,1.733,17.352,2.488,26.125,2.632c8.138,0.133,16.286,0.267,24.418,0.008
		c22.262-0.707,44.739,2.341,66.71-3.721c1.272-0.351,2.701-0.138,4.056-0.177c14.85-0.423,29.827,0.742,44.336-3.861
		c1.867-0.592,4.048-0.331,6.077-0.261c15.733,0.544,30.758-3.429,45.858-7.026c18.359-4.373,36.716-8.768,55.138-12.859
		c9.659-2.145,18.903-1.861,25.276,7.562c0.341,0.504,1.145,0.695,1.734,1.032c1.787,7.816,3.575,15.631,5.363,23.447
		c-1.007,1.707-2.952,3.462-2.867,5.112c0.527,10.214-4.771,14.885-14.203,16.465c-3.971,0.665-7.764,2.339-11.719,3.171
		c-13.216,2.779-26.485,5.309-39.703,8.076c-15.863,3.321-31.219,9.319-47.812,8.8c-1.944-0.061-3.894,1.171-5.891,1.469
		c-4.675,0.699-9.38,1.682-14.076,1.698c-59.875,0.208-119.75,0.295-179.625,0.325c-7.444,0.004-14.79-0.149-22.08-2.883
		C401.036,401.56,395.297,401.776,389.906,401.064z"/>
	<path fill="#A3EAE8" d="M738.609,337.741c-0.589-0.337-1.393-0.528-1.734-1.032c-6.373-9.423-15.617-9.707-25.276-7.562
		c-18.422,4.091-36.779,8.486-55.138,12.859c-15.099,3.597-30.125,7.57-45.858,7.026c-2.029-0.07-4.21-0.332-6.077,0.261
		c-14.509,4.603-29.486,3.438-44.336,3.861c-1.356,0.038-2.784-0.174-4.056,0.177c-21.971,6.063-44.449,3.014-66.71,3.721
		c-8.131,0.258-16.28,0.125-24.418-0.008c-8.773-0.144-17.36-0.899-26.125-2.632c-10.455-2.068-21.7-1.975-32.335-0.659
		c-7.076,0.875-13.684,5.528-20.502,8.491c-0.538-5.343-1.639-10.7-1.503-16.026c0.323-12.724,7.576-21.885,19.752-24.978
		c7.795-1.98,15.777-4.337,23.705-4.455c19.75-0.296,38.229-7.515,57.633-9.434c4.037-0.399,4.853-4.103,5.241-7.587
		c15.423,13.278,35.252,11.801,53.42,15.836c1.848,0.41,4.009-0.348,5.979-0.776c3.292-0.716,6.594-2.45,9.807-2.267
		c11.465,0.653,21.049-4.272,30.683-9.293c4.795-2.499,9.567-5.041,14.349-7.563c16.347,0.027,32.695-0.037,49.04,0.116
		c9.473,0.089,18.863-0.413,28.26,2.793c5.555,1.895,12.134,1.052,18.246,0.973c5.712-0.074,10.9,1.587,15.431,4.605
		c10.363,6.903,19.008,15.498,23.175,27.616C739.846,333.507,738.865,335.749,738.609,337.741z"/>
	<path fill="#50BAC5" d="M605.11,295.7c-4.782,2.522-9.554,5.065-14.349,7.563c-9.634,5.02-19.218,9.945-30.683,9.293
		c-3.213-0.183-6.515,1.551-9.807,2.267c-1.969,0.428-4.13,1.187-5.979,0.776c-18.168-4.036-37.997-2.558-53.42-15.836
		c-6.542-7.058-11.255-14.75-13.49-24.553c-2.066-9.06-1.752-17.322,0.879-25.953c4.036-13.239,10.544-25.007,20.359-34.773
		c21.599-21.491,48.166-21.965,73.451-11.294c7.496,3.163,14.801,6.9,21.853,10.965c10.27,5.92,18.874,13.982,22.111,25.621
		c3.697,13.292,3.853,26.922-2.177,39.852C611.285,285.145,608.046,290.352,605.11,295.7z"/>
	<path fill="#A3EAE8" d="M389.906,401.064c5.391,0.713,11.13,0.497,16.09,2.358c7.29,2.735,14.636,2.887,22.08,2.883
		c59.875-0.03,119.75-0.117,179.625-0.325c4.696-0.016,9.401-1,14.076-1.698c1.997-0.298,3.947-1.53,5.891-1.469
		c16.593,0.519,31.949-5.48,47.812-8.8c13.219-2.767,26.487-5.297,39.703-8.076c3.955-0.832,7.748-2.506,11.719-3.171
		c9.432-1.58,14.73-6.251,14.203-16.465c-0.085-1.65,1.86-3.405,2.867-5.112c1.261,1.445,3.493,2.803,3.631,4.348
		c1.042,11.726,2.368,23.376,4.951,34.895c0.698,3.115,0.031,6.536-0.009,9.817c-1.358,0.04-2.763-0.135-4.066,0.153
		c-18.444,4.071-36.723,9.19-55.916,8.255c-2.007-0.098-4.283-0.118-6.025,0.699c-8.38,3.929-17.297,2.807-26.063,3.269
		c-4.042,0.213-8.391-0.022-12.028,1.404c-7.268,2.849-14.68,2.287-22.109,2.507c-8.143,0.241-16.713-1.043-24.324,1.092
		c-10.086,2.829-20.06,2.819-30.19,3.116c-10.797,0.317-21.69-0.913-32.2,3.231c-2.988,1.178-6.716,0.616-10.105,0.622
		c-31.253,0.053-62.505,0.067-93.758,0.057c-4.737-0.002-9.354-0.255-14.044-1.71c-12.241-3.799-24.665-7.007-37.016-10.45
		C383.62,414.665,387.966,408.157,389.906,401.064z"/>
	<path fill="#EBF2F2" d="M384.699,422.492c12.351,3.443,24.776,6.651,37.016,10.45c4.69,1.456,9.307,1.709,14.044,1.71
		c31.253,0.01,62.505-0.005,93.758-0.057c3.389-0.006,7.117,0.557,10.105-0.622c10.511-4.145,21.403-2.914,32.2-3.231
		c10.13-0.298,20.104-0.288,30.19-3.116c7.611-2.135,16.181-0.851,24.324-1.092c7.429-0.219,14.841,0.343,22.109-2.507
		c3.637-1.426,7.985-1.191,12.028-1.404c8.766-0.462,17.682,0.66,26.063-3.269c1.742-0.817,4.018-0.797,6.025-0.699
		c19.193,0.935,37.472-4.185,55.916-8.255c1.303-0.288,2.709-0.113,4.066-0.153c3.51,0.056,6.804,0.538,8.451,4.277
		c-4.067,8.437-12.208,11.257-20.153,11.717c-13.541,0.784-26.452,6.467-40.218,4.692c-12.476,3.855-25.723,2.174-38.136,4.631
		c-14.864,2.942-29.578,3.124-44.449,3.504c-2.038,0.052-4.253-0.328-6.082,0.333c-13.812,4.992-28.175,3.258-42.356,3.758
		c-2.714,0.096-5.679-0.382-8.095,0.541c-12.498,4.774-25.486,3.207-38.311,3.299c-27.194,0.196-54.395-0.183-81.585,0.215
		c-11.693,0.171-22.937-1.18-33.944-5.031c-10.222-3.577-20.678-6.23-31.463-7.47C376.224,428.685,379.074,424.624,384.699,422.492z
		"/>
	<path fill="#EBF2F2" d="M269.431,796.734c5.855-2.639,12.08-1.722,18.143-1.595c5.746,0.121,10.702-1.784,15.446-4.531
		c9.59-5.554,12.41-14.964,9.286-26.084c-1.906-6.782-5.426-12.391-9.394-17.864c-9.541-13.158-13.271-27.667-12.858-43.97
		c0.386-15.277,7.332-26.228,19.571-33.602c10.497-6.324,22.26-9.781,34.97-9.279c5.683,0.224,10.82,1.589,15.485,4.423
		c8.253,5.015,14.938,11.797,20.047,19.996c5.792,9.296,5.673,19.637,3.253,29.623c-1.465,6.047-6.373,10.594-13.155,11.342
		c-4.709,0.519-9.537,0.489-14.272,0.143c-12.704-0.93-19.879-12.72-15.221-25.162c0.516-1.378,3.136-2.283,4.949-2.741
		c1.035-0.261,2.977,0.48,3.522,1.374c1.369,2.243,2.09,4.869,3.224,7.269c1.87,3.957,4.916,6.287,9.39,6.837
		c7.473,0.919,11.827-3.871,10.009-11.141c-3.182-12.719-11.981-21.006-22.236-28.1c-1.046-0.724-2.556-0.982-3.877-1.072
		c-11.289-0.762-21.713,2.035-30.292,9.384c-13.323,11.413-16.559,26.441-9.141,42.261c4.026,8.584,9.203,16.622,13.653,25.017
		c2.527,4.767,5.926,9.58,6.629,14.689c1.083,7.869,3.001,16.601-2.799,23.609c-8.31,10.042-17.186,19.732-31.731,19.804
		c-7.473,0.037-14.949-0.517-22.423-0.804C269.548,803.285,269.489,800.009,269.431,796.734z"/>
	<path fill="#EBF2F2" d="M712.6,880.899c12.038,1.378,23.431-1.388,34.808-7.203c13.28-6.788,20.284-22.68,16.825-38.007
		c-0.524-2.32-2.807-5.029-4.986-6.056c-10.612-5.004-21.8-7.42-33.621-5.611c-5.015,0.768-10.128,9.972-7.767,14.423
		c0.899,1.694,2.454,3.582,4.142,4.198c3.126,1.141,6.61,1.259,9.868,2.099c1.976,0.51,3.604,1.687,3.991,4.057
		c0.487,2.989-0.422,5.289-2.931,6.948c-7.693,5.084-17.39,3.279-23.252-4.317c-9.088-11.777-6.218-29.041,6.344-37.518
		c1.635-1.103,3.664-2.179,5.553-2.26c12.19-0.526,24.25-1.216,36.228,3.236c6.826,2.537,11.698,6.65,16.162,11.784
		c1.298,1.493,2.551,3.439,2.843,5.329c2.724,17.664-0.588,33.882-12.826,47.422c-2.628,2.907-6.466,4.937-10.073,6.702
		c-11.671,5.711-24.448,7.936-36.969,10.743c-10.339,2.318-20.213-2.244-29.932-4.58c-14.827-3.565-26.413-13.868-37.475-23.788
		c-5.924-5.313-9.072-13.557-10.815-21.59c-0.671-3.089,0.118-6.803,1.203-9.895c1.799-5.131,4.503-9.867,8.64-13.671
		c3.506-3.224,6.503-7.047,10.21-9.997c7.941-6.318,9.164-14.599,7.998-23.853c-0.744-5.9-4.766-10.153-10.457-10.762
		c-11.868-1.27-23.015,0.162-32.692,8.066c-4.188,3.421-8.951,6.134-13.18,9.511c-6.106,4.876-10.321,10.844-9.304,19.26
		c0.08,0.662-0.047,1.361-0.152,2.031c-0.895,5.688-5.31,10.055-9.034,8.955c-4.068-1.202-7.007-6.361-6.683-11.466
		c0.45-7.116,3.625-13.026,8.081-18.324c13.451-15.999,29.652-27.758,50.234-33.052c5.548-1.427,10.498-1.349,15.811,0.897
		c7.858,3.321,13.84,8.714,18.328,15.67c5.469,8.476,7.323,17.209,1.711,26.829c-4.127,7.075-7.168,14.719-15.41,18.233
		c-1.2,0.512-2.234,1.574-3.151,2.563c-11.866,12.794-12.298,18.585-1.087,31.41c4.883,5.586,10.486,10.399,17.003,14.45
		C687.879,880.66,699.69,881.751,712.6,880.899z"/>
	<path fill="#EBF2F2" d="M476.004,651.59c15.024-1.933,29.305,4.179,43.586,13.513c12.579,8.222,20.536,19.469,28.306,31.396
		c1.845,2.833,2.936,6.149,4.677,9.061c9.871,16.504,26.576,23.525,45.429,19.044c3.287-0.781,6.364-2.421,9.642-3.258
		c6.446-1.646,10.723-5.948,13.692-11.432c7.303-13.487,10.503-27.964,8.558-43.263c-0.971-7.639-4.816-14.042-10.462-19.349
		c-3.806-3.578-8.441-3.94-13.299-3.943c-10.161-0.005-15.421,4.053-16.615,13.824c-0.572,4.681-0.353,9.52,0.041,14.243
		c0.464,5.563,5.912,9.297,11.872,8.357c2.622-0.414,5.114-1.682,7.738-2.045c2.405-0.333,3.624,1.612,4.011,3.68
		c1.421,7.578-5.72,15.675-12.805,14.051c-5.229-1.198-10.564-2.906-15.174-5.562c-4.747-2.735-8.22-7.201-8.334-13.259
		c-0.115-6.126-0.145-12.255-0.164-18.382c-0.018-6.149,0.064-12.095,4.675-17.207c6.116-6.782,13.057-11.928,22.165-13.531
		c7.841-1.38,14.948,1.221,21.166,5.591c6.734,4.734,11.592,11.121,15.502,18.589c8.285,15.827,6.058,31.605,0.552,47.212
		c-3.851,10.917-9.576,20.944-18.802,28.666c-7.592,6.354-15.74,10.586-25.874,10.186c-10.108-0.399-20.076,0.506-30.218-2.876
		c-9.845-3.283-16.366-9.238-21.605-17.397c-4.03-6.276-8.106-12.566-11.522-19.181c-4.846-9.385-12.49-16.337-20.473-22.457
		c-9.706-7.441-20.647-12.376-33.805-12.123c-12.387,0.239-24.406,1.158-35.851,5.972c-5.188,2.182-10.393,3.231-15.895,2.269
		c-1.959-0.342-4.039-1.245-3.908-3.835c0.065-1.271,0.242-3.012,1.066-3.681c2.6-2.113,5.345-4.216,8.363-5.617
		C445.831,652.537,452.023,651.563,476.004,651.59z"/>
	<path fill="#EBF2F2" d="M330.695,610.939c9.547,0,19.102-0.237,28.639,0.074c7.922,0.258,15.135-2.052,20.878-6.923
		c7.765-6.585,14.757-14.119,21.723-21.581c1.685-1.805,2.313-4.857,2.798-7.453c0.495-2.645-0.001-5.459,0.31-8.156
		c1.399-12.125-5.8-19.268-15.045-24.429c-10.627-5.933-22.435-5.54-32.89,0.612c-3.342,1.967-6.122,5.403-8.283,8.735
		c-3.009,4.64-0.862,11.248,3.649,14.188c6.364,4.149,12.426,5.329,18.466-0.651c1.379-1.366,3.343-2.582,5.202-2.897
		c1.791-0.303,4.074,0.192,5.644,1.151c2.769,1.692,2.714,5.016,1.637,7.346c-3.009,6.514-7.735,11.211-15.575,11.291
		c-3.409,0.035-6.82-0.096-10.227-0.016c-5.038,0.119-9.387-1.469-12.938-5.043c-3.36-3.382-6.719-6.772-9.926-10.297
		c-3.528-3.878-4.223-8.723-2.79-13.43c2.426-7.97,6.448-15.269,14.039-19.391c8.297-4.506,16.333-9.808,26.617-9.218
		c11.187,0.642,21.284,4.292,30.732,9.881c4.748,2.809,8.195,7.065,10.505,12.223c3.048,6.808,7.177,13.842,5.69,21.202
		c-2.113,10.459-3.873,21.215-11.831,29.813c-11.88,12.834-25.539,21.998-42.542,26.811c-8.225,2.328-16.223,3.422-24.003,0.818
		c-11.419-3.823-22.968-2.06-34.462-2.475c-6.435-0.232-11.761,3.258-16.737,6.811c-3.296,2.353-5.99,5.547-8.961,8.357
		c-4.649,4.397-7.676,9.432-7.203,16.193c0.237,3.391-0.013,6.996-2.779,9.465c-1.373,1.226-3.344,2.145-5.163,2.422
		c-2.567,0.391-3.507-1.956-3.828-3.884c-3.146-18.877,3.712-33.145,19.753-43.477c12.486-8.042,12.341-8.291,26.397-8.394
		c7.501-0.055,15.003-0.01,22.504-0.01C330.695,610.72,330.695,610.829,330.695,610.939z"/>
	<path fill="#EBF2F2" d="M559.307,868.5c-19.006-0.005-33.761,10.457-40.27,28.463c-0.692,1.916-1.827,3.736-2.175,5.703
		c-2.951,16.716-13.942,28.233-26.803,37.16c-13.401,9.302-28.56,15.355-45.794,14.953c-9.73-0.227-18.94-1.521-27.687-5.528
		c-1.422-0.651-2.387-3.198-2.753-5.03c-0.471-2.365,2.562-5.549,4.938-5.421c3.337,0.18,6.988-0.053,9.922,1.226
		c12.435,5.421,24.101,0.06,35.922-2.144c8.239-1.536,14.953-6.288,20.726-12.343c2.821-2.959,5.807-5.76,8.699-8.652
		c4.854-4.854,7.978-10.045,9.651-17.305c5.952-25.834,24.31-39.881,48.899-46.6c3.784-1.034,8.228-0.736,12.157,0.024
		c17.56,3.399,31.693,12.896,41.404,27.525c5.008,7.544,9.335,16.483,5,26.808c-1.755,4.181-1.052,9.367-1.633,14.075
		c-2.66,21.582-20.267,27.945-37.187,24.196c-2.445-0.542-4.621-2.759-6.68-4.489c-4.332-3.637-6.475-8.796-8.292-13.881
		c-0.816-2.283-0.552-5.642,0.582-7.796c2.898-5.503,7.505-9.724,13.075-12.483c1.382-0.685,4.035,0.153,5.594,1.117
		c2.383,1.474,4.013,4.158,2.987,6.934c-0.909,2.457-3.083,4.418-4.497,6.722c-2.242,3.652-1.92,6.667,0.746,9.084
		c3.929,3.563,9.832,4.025,12.964,0.903c5.003-4.988,7.982-10.999,8.405-18.088c0.244-4.077,0.22-8.179,0.124-12.266
		c-0.44-18.853-13.151-31.929-31.893-32.854C563.401,868.413,561.352,868.5,559.307,868.5z"/>
	<path fill="#EBF2F2" d="M908.466,705.229c1.278,9.699-1.59,19.814-6.808,29.792c-4.966,9.495-12.554,14.463-22.595,14.85
		c-11.444,0.44-22.952,1.315-34.319-2.627c-9.086-3.151-18.898-1.739-28.359-1.079c-8.064,0.563-17.759,11.034-18.366,19.419
		c-0.491,6.776-0.165,13.608-0.51,20.399c-0.134,2.636-0.699,5.431-1.831,7.786c-1.148,2.388-3.147,4.441-6.357,4.216
		c-3.057-0.215-5.108-2.12-6.095-4.631c-0.96-2.443-1.889-5.463-1.296-7.848c2.134-8.581,3.144-17.249,4.212-25.997
		c0.618-5.062,3.743-10.225,6.893-14.49c7.276-9.851,28.221-16.298,40.479-14.014c11.925,2.222,23.398,6.754,35.764,6.771
		c14.757,0.021,24.363-7.674,26.383-22.519c2.159-15.861,0.295-31.121-8.843-44.931c-7.514-11.355-22.349-17.451-35.692-13.915
		c-4.761,1.262-8.232,4.712-10.566,9.055c-0.593,1.103-0.901,2.717-0.584,3.892c1.845,6.831,10.777,12.148,17.524,10.858
		c2.978-0.57,4.382-2.911,6.461-4.57c4.095-3.268,9.893-1.201,10.714,3.922c0.4,2.49,0.129,5.664-1.133,7.741
		c-4.98,8.188-11.696,11.035-20.794,9.11c-10.543-2.231-18.272-8.712-24.347-17.271c-1.106-1.559-1.471-3.786-1.749-5.766
		c-1.415-10.064,3.998-22.852,16.151-27.816c16.772-6.851,20.856-7.437,36.176,1.874c17.86,10.855,28.69,26.548,29.474,48.113
		C908.551,698.273,908.466,700.998,908.466,705.229z"/>
	<path fill="#EBF2F2" d="M823.248,508.435c12.644-1.546,22.656,4.758,32.06,11.307c12.77,8.893,20.022,21.917,23.49,37.018
		c0.298,1.3,0.4,2.732,0.204,4.045c-4.018,27.015-19.505,46.673-42.848,54.394c-7.889,2.609-15.732,3.565-23.942,3.886
		c-15.3,0.599-25.819,12.388-26.915,27.685c-0.96,13.401,4.123,23.759,13.226,32.844c1.996,1.992,2.895,4.497,1.624,7.391
		c-1.796,4.089-6.914,5.672-10.097,3.348c-8.164-5.958-11.84-14.964-15.237-23.73c-7.881-20.329,0.889-45.519,19.381-57.374
		c2.176-1.395,5.134-2.566,7.596-2.345c10.441,0.938,19.876-3.897,30.078-4.663c9.853-0.74,17.76-6.456,22.873-15.263
		c5.884-10.135,10.272-20.621,8.668-32.842c-0.557-4.238-1.639-7.985-4.579-11.026c-4.729-4.891-9.328-9.952-14.44-14.419
		c-8.828-7.714-19.335-9.498-30.597-7.175c-6.334,1.307-10.135,11.239-6.276,16.627c1.042,1.454,3.24,2.428,5.089,2.883
		c4.245,1.045,7.831-1.208,11.632-2.728c2.59-1.035,5.271,0.038,7.239,2.351c1.905,2.239,2.674,4.649,1.57,7.467
		c-3.094,7.907-7.666,10.769-15.716,9.473c-11.475-1.847-19.866-8.448-26.032-17.942c-2.334-3.594-2.371-8.094-0.542-11.792
		c3.695-7.469,9.853-12.986,16.665-17.558c2.081-1.396,5.149-1.513,7.81-1.8C817.922,508.209,820.669,508.435,823.248,508.435z"/>
	<path fill="#EBF2F2" d="M464.386,709.243c19.647-1.654,36.164,6.871,50.173,18.82c10.234,8.729,16.345,21.603,20.815,34.6
		c1.753,5.099,2.87,10.457,3.814,15.779c0.587,3.311,1.113,6.992,0.272,10.134c-3.319,12.405-4.32,25.767-11.068,36.851
		c-9.149,15.027-18.863,29.927-34.397,39.566c-3.998,2.481-7.842,5.284-12.066,7.284c-1.303,0.617-4.301-0.404-5.296-1.652
		c-0.914-1.146-0.979-4.348-0.036-5.374c6.907-7.512,14.168-14.698,21.304-21.999c5.699-5.831,11.117-11.749,15.617-18.74
		c6.467-10.048,10.244-20.525,10.204-32.421c-0.014-4.088,0.031-8.177,0.011-12.265c-0.11-22.497-10.026-38.986-30.186-49.173
		c-3.644-1.842-7.435-3.42-10.966-5.454c-8.849-5.098-18.352-4.267-27.869-3.344c-1.287,0.125-2.596,0.834-3.734,1.534
		c-6.117,3.763-10.672,16.487-8.417,23.67c0.605,1.93,1.75,3.684,2.552,5.56c4.525,10.597,11.545,10.12,20.218,9.465
		c2.448-0.185,2.961-2.552,2.464-4.556c-0.701-2.825-0.443-5.269,1.239-7.672c1.983-2.834,6.622-3.576,9.012-1.656
		c3.941,3.167,5.683,7.627,7.249,12.079c0.585,1.666,0.06,4.044-0.673,5.799c-3.539,8.461-12.828,13.978-21.274,11.955
		c-6.552-1.569-12.825-4.321-19.202-6.603c-6.238-2.232-9.925-6.929-12.221-12.912c-4.059-10.579-3.734-21.382-0.664-31.985
		c2.956-10.21,10.847-15.409,20.898-17.175C456.117,708.661,460.302,709.243,464.386,709.243z"/>
	<path fill="#EBF2F2" d="M395.772,810.961c-10.755-1.475-21.476,4.227-31.383,13.853c-14.309,13.903-21.815,30.751-25.02,49.98
		c-0.443,2.656-0.757,5.347-1.42,7.949c-0.758,2.974-5.251,5.706-7.957,5.098c-2.825-0.635-6.029-4.906-5.69-7.586
		c2.676-21.201,13.804-46.388,27.31-62.447c7.744-9.208,18.031-14.492,28.968-18.26c8.184-2.819,16.51-6.41,25.762-3.608
		c12.255,3.712,24.256,6.525,34.469,16.004c15.115,14.031,18.776,30.681,17.107,49.792c-0.116,1.332-0.279,2.805-0.921,3.925
		c-12.548,21.889-37.135,30.993-58.897,17.38c-2.113-1.322-3.605-3.989-4.801-6.33c-1.216-2.383-1.702-5.139-2.522-7.726
		c-4.608-14.542,1.819-26.915,16.611-31.97c6.352-2.171,17.473,3.098,20.515,9.719c0.576,1.255-1.253,4.68-2.688,4.809
		c-3.353,0.301-6.718,0.489-10.078,0.709c-6.778,0.444-9.065,1.676-9.723,5.255c-1.608,8.741-0.19,12.792,5.244,15.878
		c4.309,2.447,8.639,4.014,13.539,1.875c1.247-0.544,2.469-1.363,3.77-1.532c7.449-0.968,12.226-4.934,15.21-11.869
		c3.136-7.287,3.78-14.457,0.569-21.677c-5.465-12.288-14.548-21.06-26.671-26.866C411.228,810.517,405.086,811.49,395.772,810.961z
		"/>
	<path fill="#EBF2F2" d="M650.134,598.454c-11.035-1.107-22.82,0.816-32.611,9.833c-0.948,0.873-2.389,1.629-3.626,1.671
		c-1.917,0.065-3.985-0.219-5.753-0.936c-1.851-0.75-2.937-5.605-1.847-7.324c1.084-1.709,2.105-3.646,3.652-4.832
		c3.23-2.475,6.965-4.295,10.168-6.799c4.04-3.158,8.578-3.856,13.441-3.855c10.909,0.001,21.822,0.13,32.724-0.158
		c7.14-0.189,13.4,2.076,19.302,5.662c18.396,11.18,33.011,25.999,43.271,45.037c4.191,7.778,9.075,15.208,12.886,23.16
		c3.794,7.914,7.345,16.074,7.098,25.23c-0.11,4.087-0.436,8.242,0.112,12.261c2.383,17.513-13.005,27.312-24.136,31.128
		c-3.096,1.061-7.011,1.516-10.059,0.606c-11.01-3.286-21.638-6.695-28.668-17.613c-5.1-7.921-8.247-15.39-6.89-24.695
		c0.817-5.602,4.957-9.888,10.912-10.333c4.745-0.355,9.554-0.519,14.292-0.172c7.614,0.557,12.203,5.286,14.938,12.083
		c0.901,2.239-0.348,6.419-2.536,7.09c-1.821,0.559-4.18,0.726-5.858,0.018c-1.726-0.73-2.86-2.791-4.354-4.16
		c-2.715-2.487-5.973-2.896-9.505-2.438c-2.8,0.363-5.287,3.275-4.45,5.515c1.918,5.135,4.034,10.205,8.353,13.84
		c11.939,10.048,18.761,10.881,31.576-1.627c1.402-1.367,2.83-3.343,3.048-5.179c1.037-8.759,2.355-17.61-1.848-26.038
		c-6.079-12.19-11.948-24.489-18.283-36.544c-1.86-3.539-4.779-6.613-7.585-9.542c-6.13-6.398-12.594-12.476-18.749-18.852
		c-8.581-8.891-18.878-13.056-31.242-12.061C655.874,598.595,653.817,598.454,650.134,598.454z"/>
	<path fill="#EBF2F2" d="M585.082,555.72c1.05,10.625-1.063,21.842-5.541,32.741c-5.907,14.376-17.271,22.099-31.49,26.499
		c-0.639,0.198-1.413,0.007-2.02,0.254c-20.203,8.209-37.219,2.215-52.285-11.894c-3.992-3.738-7.821-4.673-12.887-2.103
		c-4.201,2.131-8.87,3.331-13.286,5.056c-3.16,1.234-6.182,2.848-9.387,3.935c-2.811,0.953-5.403-0.028-7.225-2.345
		c-1.293-1.644-0.517-6.606,1.194-7.508c8.406-4.437,16.659-9.278,25.407-12.914c5.684-2.362,12.055-1.933,17.824,1.141
		c2.401,1.28,5.523,2.018,7.058,3.985c10.079,12.909,24.159,10.943,37.566,9.913c10.658-0.818,19.34-6.24,24.527-16.091
		c2.219-4.215,4.906-8.398,6.04-12.931c3.343-13.363,4.467-26.967-1.809-39.816c-5.582-11.427-15.366-16.793-28.066-16.956
		c-7.875-0.101-12.698,4.422-15.907,10.834c-3.707,7.405,0.112,14.989,8.353,17.311c2.573,0.725,5.233,1.138,7.804,1.867
		c1.511,0.428,2.422,4.011,1.187,5.263c-1.845,1.87-3.799,4.346-6.111,4.913c-8.836,2.164-15.852-1.927-22.021-7.784
		c-0.939-0.892-1.83-2.26-1.972-3.497c-1.009-8.775-2.179-17.471,1.974-26.021c2.841-5.852,6.542-10.532,12.713-12.473
		c12.56-3.95,24.651-5.267,37.089,2.223c14.407,8.675,20.032,21.385,21.241,37.081C585.261,549.111,585.082,551.852,585.082,555.72z
		"/>
	<path fill="#EBF2F2" d="M693.807,553.604c-12.289,1.601-24.318-3.103-35.954-8.783c-5.899-2.879-11.26-4.005-17.394-0.932
		c-4.375,2.192-9.268,1.978-13.972,0.883c-1.096-0.255-2.692-1.602-2.724-2.495c-0.065-1.828,0.172-4.669,1.334-5.38
		c10.005-6.125,20.558-10.532,32.548-6.269c7.014,2.494,13.75,5.808,20.828,8.077c12.608,4.041,25.36,4.595,37.486-1.627
		c12.727-6.531,18.571-20.653,15.33-34.451c-3.136-13.352-11.052-23.043-22.191-30.388c-7.224-4.763-12.791-4.298-20.506,1.158
		c-4.329,3.062-5.787,7.332-5.338,12.422c0.059,0.671,0.29,1.327,0.437,1.99c0.507,2.279,4.156,4.61,6.294,3.734
		c1.788-0.733,3.487-1.819,5.023-3.009c4.848-3.755,7.517-3.801,10.107-0.363c3.128,4.152,3.051,10.05-0.8,12.72
		c-3.848,2.668-8.146,4.72-12.368,6.793c-1.103,0.542-2.661,0.205-4.008,0.178c-0.665-0.013-1.364-0.142-1.983-0.384
		c-22.015-8.622-23.749-20.874-11.254-37.421c4.561-6.04,10.569-10.598,17.822-13.122c7.392-2.573,14.358-2.419,21.274,2.297
		c8.442,5.757,17.099,11.07,22.388,20.255c6.231,10.821,10.069,22.198,8.41,34.91c-3.024,23.172-15.695,36.246-39.464,39.149
		C701.786,553.956,698.345,553.604,693.807,553.604z"/>
	<path fill="#EBF2F2" d="M802.044,889.607c-0.124-12.197-0.845-24.346,3.991-36.166c6.058-14.807,14.523-27.891,26.89-37.784
		c9.943-7.954,22.276-10.055,34.76-7.634c14.066,2.728,24.687,10.985,32.03,23.185c5.991,9.953,5.791,20.862,2.943,31.594
		c-1.567,5.904-4.912,11.296-10.199,14.914c-5.709,3.907-12.393,5.946-19.02,6.571c-9.805,0.924-21.932-10.282-22.488-19.879
		c-0.235-4.043,0.077-8.158,0.56-12.19c0.443-3.698,5.673-7.544,8.862-6.956c3.523,0.65,6.265,5.331,5.401,9.513
		c-0.542,2.627-1.898,5.198-1.882,7.788c0.01,1.665,1.478,4.228,2.93,4.817c5.189,2.103,10.694,2.156,15.77-0.481
		c8.835-4.59,12.571-18.654,6.752-26.633c-6.057-8.305-13.216-15.554-23.292-19.164c-4.696-1.682-9.333-1.862-13.92,0.063
		c-11.731,4.925-20.21,13.366-26.474,24.337c-11.655,20.412-14.814,41.958-9.202,64.793c0.319,1.301,0.797,2.77,0.485,3.976
		c-0.7,2.709-2.327,4.976-5.128,5.877c-2.922,0.939-5.512-0.145-6.962-2.658c-1.31-2.269-2.547-4.918-2.685-7.46
		C801.801,903.238,802.044,896.416,802.044,889.607z"/>
	<path fill="#EBF2F2" d="M366.863,495.815c-6.111,0-12.222,0.05-18.331-0.026c-2.289-0.028-5.03-3.517-4.309-5.865
		c0.553-1.8,1.682-4.458,3.044-4.802c7.846-1.985,15.788-4.361,23.793-4.78c13.275-0.696,25.774,3.514,35.753,12.153
		c10.618,9.193,22.876,14.336,35.868,18.411c6.845,2.147,17.586-1.764,21.622-7.594c3.152-4.554,2.751-14.424-0.784-19.293
		c-2.911-4.01-7.973-4.711-12.407-1.576c-1.078,0.762-1.704,2.161-2.781,2.927c-2.776,1.977-6.859,0.879-8.619-2.154
		c-2.944-5.072-2.866-11.143,0.447-15.27c3.347-4.169,8.157-5.428,12.863-3.917c5.074,1.629,10.131,4.027,14.433,7.143
		c4.343,3.145,7.879,7.463,11.532,11.482c4.057,4.464,4.493,9.85,2.531,15.279c-6.321,17.48-25.378,33.261-48.798,24.555
		c-8.959-3.33-17.456-6.631-25.051-12.901C390.651,495.54,390.368,495.883,366.863,495.815z"/>
	<path fill="#EBF2F2" d="M111.883,456.242c1.056,0.338,3.603,0.362,4.61,1.619c3.383,4.223,6.529,8.708,9.207,13.411
		c9.105,15.992,19.534,31.074,30.55,45.785c3.668,4.898,7.402,9.833,10.351,15.169c13.371,24.196,31.968,43.867,52.641,61.805
		c1.525,1.323,3.326,2.536,4.325,4.203c1.469,2.451,1.221,5.246-0.361,7.702c-1.867,2.899-6.421,4.161-8.915,2.539
		c-1.704-1.109-3.511-2.138-4.986-3.51c-18.446-17.168-36.413-34.697-50.172-56.143c-10.275-16.016-21.643-31.326-32.167-47.188
		c-6.384-9.622-12.26-19.598-17.983-29.632c-1.603-2.811-2.387-6.361-2.564-9.626C106.277,459.73,107.779,457.139,111.883,456.242z"
		/>
</g>
</svg>
